<svg width="230" height="240" viewBox="425 420 230 240" fill="none" xmlns="http://www.w3.org/2000/svg"><path fill-rule="evenodd" clip-rule="evenodd" d="M481.48 465.221C481.48 444.51 498.27 427.721 518.98 427.721H650.23V558.97C650.23 579.681 633.441 596.47 612.73 596.47H607.713C610.903 590.954 612.73 584.551 612.73 577.72V558.97H575.23C575.23 569.326 566.835 577.72 556.48 577.72H500.23V521.47C500.23 511.115 508.625 502.72 518.98 502.72H575.23V521.47H612.73V465.221H500.23C493.4 465.221 486.996 467.047 481.48 470.237V465.221ZM467.747 483.971H462.73C442.02 483.971 425.23 500.76 425.23 521.47V652.72H556.48C577.191 652.72 593.98 635.931 593.98 615.22V610.203C588.464 613.394 582.06 615.22 575.23 615.22H462.73V502.72C462.73 495.89 464.556 489.486 467.747 483.971Z" fill="#FFFFFF"></path></svg>