<svg width="1081" height="1081" viewBox="0 0 1081 1081" fill="none" xmlns="http://www.w3.org/2000/svg">
<g clip-path="url(#clip0_2004_20206)">
<path fill-rule="evenodd" clip-rule="evenodd" d="M97.7305 577.721L97.7305 465.221H85.2305C71.4234 465.221 60.2305 476.414 60.2305 490.221L60.2305 577.721L60.2305 615.221H185.23C199.038 615.221 210.23 604.028 210.23 590.221V577.721H97.7305Z" fill="#101010"></path>
<path fill-rule="evenodd" clip-rule="evenodd" d="M265.23 465.221C251.423 465.221 240.23 476.414 240.23 490.221V615.221H365.23C379.038 615.221 390.23 604.028 390.23 590.221V465.221H265.23ZM290.23 502.721C283.327 502.721 277.73 508.317 277.73 515.221V577.721H340.23C347.134 577.721 352.73 572.124 352.73 565.221V502.721H290.23Z" fill="#101010"></path>
<path fill-rule="evenodd" clip-rule="evenodd" d="M481.48 465.221C481.48 444.51 498.27 427.721 518.98 427.721H650.23V558.97C650.23 579.681 633.441 596.47 612.73 596.47H607.713C610.903 590.954 612.73 584.551 612.73 577.72V558.97H575.23C575.23 569.326 566.835 577.72 556.48 577.72H500.23V521.47C500.23 511.115 508.625 502.72 518.98 502.72H575.23V521.47H612.73V465.221H500.23C493.4 465.221 486.996 467.047 481.48 470.237V465.221ZM467.747 483.971H462.73C442.02 483.971 425.23 500.76 425.23 521.47V652.72H556.48C577.191 652.72 593.98 635.931 593.98 615.22V610.203C588.464 613.394 582.06 615.22 575.23 615.22H462.73V502.72C462.73 495.89 464.556 489.486 467.747 483.971Z" fill="#9BCF25"></path>
<path fill-rule="evenodd" clip-rule="evenodd" d="M481.48 465.221C481.48 444.51 498.27 427.721 518.98 427.721H650.23V558.97C650.23 579.681 633.441 596.47 612.73 596.47H607.713C610.903 590.954 612.73 584.551 612.73 577.72V558.97H575.23C575.23 569.326 566.835 577.72 556.48 577.72H500.23V521.47C500.23 511.115 508.625 502.72 518.98 502.72H575.23V521.47H612.73V465.221H500.23C493.4 465.221 486.996 467.047 481.48 470.237V465.221ZM467.747 483.971H462.73C442.02 483.971 425.23 500.76 425.23 521.47V652.72H556.48C577.191 652.72 593.98 635.931 593.98 615.22V610.203C588.464 613.394 582.06 615.22 575.23 615.22H462.73V502.72C462.73 495.89 464.556 489.486 467.747 483.971Z" fill="black" fill-opacity="0.1"></path>
<path fill-rule="evenodd" clip-rule="evenodd" d="M710.23 465.221C696.423 465.221 685.23 476.414 685.23 490.221V615.221H810.23C824.037 615.221 835.23 604.028 835.23 590.221V465.221H710.23ZM735.23 502.721C728.326 502.721 722.73 508.317 722.73 515.221V577.721H785.23C792.134 577.721 797.73 572.124 797.73 565.221V502.721H735.23Z" fill="#101010"></path>
<path fill-rule="evenodd" clip-rule="evenodd" d="M907.73 577.721L907.73 465.221H895.23C881.423 465.221 870.23 476.414 870.23 490.221L870.23 577.721L870.23 615.221H995.23C1009.04 615.221 1020.23 604.028 1020.23 590.221V577.721H907.73Z" fill="#101010"></path>
<rect x="982.73" y="465.221" width="37.5" height="37.5" fill="#9BCF25"></rect>
<rect x="982.73" y="465.221" width="37.5" height="37.5" fill="black" fill-opacity="0.1"></rect>
</g>
<defs>
<clipPath id="clip0_2004_20206">
<rect width="1080" height="1080" fill="white" transform="translate(0.730469 0.720703)"></rect>
</clipPath>
</defs>
</svg>